Coordinates
version=1
nRows=14
nColumns=40
inDegrees=yes

Units are S.I. units (second, meters, Newtons, ...)
Angles are in degrees.

endheader
time	pelvis_tilt	pelvis_list	pelvis_rotation	pelvis_tx	pelvis_ty	pelvis_tz	hip_flexion_r	hip_adduction_r	hip_rotation_r	knee_angle_r	knee_angle_r_beta	ankle_angle_r	subtalar_angle_r	mtp_angle_r	hip_flexion_l	hip_adduction_l	hip_rotation_l	knee_angle_l	knee_angle_l_beta	ankle_angle_l	subtalar_angle_l	mtp_angle_l	lumbar_extension	lumbar_bending	lumbar_rotation	arm_flex_r	arm_add_r	arm_rot_r	elbow_flex_r	pro_sup_r	wrist_flex_r	wrist_dev_r	arm_flex_l	arm_add_l	arm_rot_l	elbow_flex_l	pro_sup_l	wrist_flex_l	wrist_dev_l
     51.54000000	     -5.69232183	     -3.02934051	     -4.23117604	      0.80489196	      0.92759350	      0.44483922	     29.45575837	     -2.38817427	    -11.79155700	     18.29560794	     18.29560794	      2.91081319	      0.64567306	      3.38507294	      5.78062347	     -3.03067875	     -9.93599675	     14.31439118	     14.31439118	     15.34327755	     -6.62269082	     -4.44570161	    -10.18474408	      5.80723060	      1.42067003	    -15.48338649	    -11.64101209	     -9.18164525	     24.74587221	     46.68330301	      0.00000000	      0.00000000	     25.82032416	    -21.79032216	    -13.36997865	     69.72982393	     47.39726923	      0.00000000	      0.00000000
     51.55357143	     -5.62824573	     -2.87386291	     -4.51408374	      0.80550840	      0.92654517	      0.44693358	     28.71900437	     -2.14636037	    -12.66945954	     16.10778539	     16.10778539	      3.02839945	      2.47683333	      4.53830157	      4.96751245	     -2.91715984	    -10.15587531	     13.98028548	     13.98028548	     15.62424259	     -6.60542811	     -4.69557841	    -10.12132619	      5.65538797	      1.57452829	    -16.21927300	    -11.50380680	     -9.28758363	     24.60284217	     46.68965993	      0.00000000	      0.00000000	     25.97595658	    -21.90554654	    -13.66616330	     70.65791888	     47.44076095	      0.00000000	      0.00000000
     51.56714286	     -5.66789067	     -2.72267856	     -4.78397433	      0.80619804	      0.92532398	      0.44912886	     28.32360754	     -1.98090876	    -13.53653138	     14.89001788	     14.89001788	      3.83309975	      4.24751086	      7.50234099	      4.27715300	     -2.80283619	    -10.29270913	     13.64877889	     13.64877889	     15.81557876	     -6.77045377	     -5.08022986	     -9.94853873	      5.52836213	      1.35749774	    -16.57843982	    -11.34530014	     -9.66003394	     24.69817155	     46.70525347	      0.00000000	      0.00000000	     25.47293235	    -22.10826866	    -14.63865729	     72.30690254	     47.57316767	      0.00000000	      0.00000000
     51.58071429	     -5.70471717	     -2.60955083	     -5.01783657	      0.80704376	      0.92404902	      0.45153820	     27.87341823	     -1.71299022	    -13.92617822	     13.94044351	     13.94044351	      3.62523675	      4.94691810	      7.65931745	      3.67417286	     -2.77276717	    -10.40715897	     13.53796498	     13.53796498	     16.23137014	     -6.80900007	     -5.13248737	     -9.71342882	      5.45030529	      1.48878083	    -16.91659043	    -11.22606238	     -9.63963904	     24.52734710	     46.70682989	      0.00000000	      0.00000000	     25.62241821	    -22.10758050	    -14.72315371	     72.62062854	     47.58874993	      0.00000000	      0.00000000
     51.59428571	     -5.64413048	     -2.62874568	     -5.18120399	      0.80815836	      0.92296922	      0.45403293	     27.31659139	     -1.41300151	    -14.44991739	     13.44767194	     13.44767194	      3.36872568	      5.70210855	      7.37233929	      2.92117996	     -2.88116803	    -10.51123407	     13.38754165	     13.38754165	     16.71709510	     -6.74483691	     -4.99654951	     -9.57732283	      5.52762737	      1.69030411	    -17.09154571	    -11.13432259	     -9.60897556	     24.40668059	     46.70682308	      0.00000000	      0.00000000	     25.62351055	    -21.94651474	    -14.87048876	     73.08000448	     47.61158488	      0.00000000	      0.00000000
     51.60785714	     -5.61094620	     -2.58940865	     -5.31809084	      0.80937094	      0.92175063	      0.45667442	     26.87330597	     -1.20448425	    -14.72246116	     13.34059801	     13.34059801	      2.30114215	      5.98739200	      4.34574625	      2.34622600	     -2.98639718	    -10.68877328	     13.57605708	     13.57605708	     17.78073070	     -6.34289460	     -3.69099447	     -9.38806839	      5.52520841	      1.48683435	    -16.89908229	    -11.08029729	     -9.46120492	     24.29147262	     46.69807928	      0.00000000	      0.00000000	     25.14888955	    -21.87940989	    -15.64305645	     73.93792657	     47.69928586	      0.00000000	      0.00000000
     51.62142857	     -5.66902042	     -2.67238351	     -5.41951439	      0.81050317	      0.92062183	      0.45940949	     26.61279435	     -0.89470835	    -14.71240697	     13.67232047	     13.67232047	      2.16127310	      5.92757733	      4.17924027	      1.83343632	     -3.20926527	    -10.64877369	     13.62564280	     13.62564280	     18.16308649	     -6.45639815	     -3.72332384	     -9.12745357	      5.69591010	      1.62923252	    -16.68826536	    -10.95846871	     -9.42615643	     24.34513700	     46.69437077	      0.00000000	      0.00000000	     24.95683912	    -21.72058445	    -15.61972478	     73.91608654	     47.69682167	      0.00000000	      0.00000000
     51.63500000	     -5.60039706	     -2.74150257	     -5.47849062	      0.81170741	      0.91962474	      0.46226827	     26.41318562	     -0.64968656	    -14.40763177	     14.49506454	     14.49506454	      1.90700219	      5.23539482	      2.79058632	      1.31240043	     -3.44708500	    -10.60501618	     13.94015243	     13.94015243	     18.79233152	     -6.50914254	     -3.21329825	     -9.03223757	      5.80612769	      1.75804110	    -16.33145949	    -10.93068589	     -9.32393195	     24.33103024	     46.68945900	      0.00000000	      0.00000000	     24.77041498	    -21.44649708	    -15.80093598	     74.03987954	     47.71440293	      0.00000000	      0.00000000
     51.64857143	     -5.64208920	     -2.80375608	     -5.47824713	      0.81278353	      0.91864704	      0.46512328	     26.27995199	     -0.38603246	    -13.85782861	     15.21106045	     15.21106045	      1.22895561	      4.12836701	      0.46871348	      1.10834085	     -3.73097721	    -10.49374972	     14.61782314	     14.61782314	     19.64240407	     -6.57433008	     -2.13637275	     -8.81327578	      5.96563596	      1.66146158	    -15.66679718	    -10.86160990	     -9.15285961	     24.36536761	     46.67933410	      0.00000000	      0.00000000	     24.32838512	    -21.14733898	    -16.15038178	     74.05137336	     47.74227208	      0.00000000	      0.00000000
     51.66214286	     -5.63681025	     -2.93453963	     -5.42114346	      0.81393311	      0.91799842	      0.46805909	     25.99206652	     -0.03490568	    -13.25805438	     15.76285769	     15.76285769	      0.50433876	      2.80384626	     -2.32830356	      0.94834140	     -4.12111850	    -10.34427060	     15.48226010	     15.48226010	     20.58285530	     -6.58694255	     -0.66799115	     -8.63482393	      6.17244744	      1.52157060	    -14.83346672	    -10.89113420	     -8.88645011	     24.34402709	     46.66550706	      0.00000000	      0.00000000	     23.70491388	    -20.77830005	    -16.56603267	     74.03900438	     47.77584159	      0.00000000	      0.00000000
     51.67571429	     -5.46288598	     -3.07574041	     -5.32337669	      0.81504874	      0.91788814	      0.47097019	     25.48617837	      0.26825544	    -12.84434508	     16.26174805	     16.26174805	      0.02328352	      1.79149949	     -4.80192036	      0.70431227	     -4.52514896	    -10.16628864	     16.49844514	     16.49844514	     21.36540038	     -6.66486978	      0.69992542	     -8.72034913	      6.39489737	      1.40650180	    -13.76815387	    -10.93346434	     -8.37677504	     24.31333853	     46.63430459	      0.00000000	      0.00000000	     23.06984175	    -20.34358195	    -16.90917859	     74.04800609	     47.81325670	      0.00000000	      0.00000000
     51.68928571	     -5.26267068	     -3.25810631	     -5.19244307	      0.81595884	      0.91805312	      0.47387331	     25.11475830	      0.52913470	    -12.56839264	     17.11454242	     17.11454242	      0.51156423	      1.18677484	     -5.13426698	      0.60452901	     -4.98385985	     -9.82318534	     17.72962234	     17.72962234	     21.39988098	     -7.32358761	      0.60702823	     -8.88766614	      6.66254858	      1.50621929	    -12.77952118	    -10.94888045	     -8.33856585	     24.66690634	     46.62520235	      0.00000000	      0.00000000	     22.59973169	    -19.89606442	    -16.78550418	     73.72463063	     47.79675582	      0.00000000	      0.00000000
     51.70285714	     -5.34080321	     -3.38397712	     -4.97430354	      0.81647394	      0.91802460	      0.47675641	     25.05021649	      0.80153804	    -12.05517204	     17.86891763	     17.86891763	      0.94836910	     -0.01717640	     -5.41015393	      1.24716220	     -5.46340206	     -9.21848236	     19.67880068	     19.67880068	     21.31523191	     -8.38745489	      0.47088729	     -8.72654228	      6.85819534	      1.38026038	    -11.59155217	    -10.89897785	     -8.28151307	     25.09405004	     46.61261047	      0.00000000	      0.00000000	     21.99173617	    -19.41336719	    -16.75811643	     73.17366579	     47.78299398	      0.00000000	      0.00000000
     51.71642857	     -4.99832203	     -3.39689319	     -4.81037011	      0.81730193	      0.91907800	      0.47958867	     24.33014863	      0.91923915	    -11.76536791	     18.26380718	     18.26380718	      1.52845499	     -0.39440795	     -5.65184963	      1.26997647	     -5.76742907	     -8.91601962	     21.31461625	     21.31461625	     20.95686734	     -9.07350327	      0.35207666	     -9.04893278	      6.89366700	      1.53994576	    -10.30289146	    -10.87823571	     -8.24449267	     25.54923546	     46.60174534	      0.00000000	      0.00000000	     21.30054547	    -18.62563220	    -16.53148549	     72.75343221	     47.75505490	      0.00000000	      0.00000000
